<?xml version="1.0" encoding="utf-8"?>
<!-- Generator: Adobe Illustrator 18.1.1, SVG Export Plug-In . SVG Version: 6.00 Build 0)  -->
<!DOCTYPE svg PUBLIC "-//W3C//DTD SVG 1.1//EN" "http://www.w3.org/Graphics/SVG/1.1/DTD/svg11.dtd">
<svg version="1.1" id="Lager_1" xmlns="http://www.w3.org/2000/svg" xmlns:xlink="http://www.w3.org/1999/xlink" x="0px" y="0px"
	 viewBox="14.9 138.2 565.5 565.5" enable-background="new 14.9 138.2 565.5 565.5" xml:space="preserve">
<g>
	<g>
		<defs>
			<path id="SVGID_1_" d="M297.6,703.7c-156.3,0-282.8-126.5-282.8-282.8s126.5-282.8,282.8-282.8s282.8,126.5,282.8,282.8
				S453.9,703.7,297.6,703.7z M297.6,733.5c172.6,0,312.5-139.9,312.5-312.5S470.3,108.4,297.6,108.4S-14.9,248.3-14.9,420.9
				S125,733.5,297.6,733.5z M-312.5-189.2H907.8v1220.3H-312.5V-189.2z"/>
		</defs>
		<clipPath id="SVGID_2_">
			<use xlink:href="#SVGID_1_"  overflow="visible"/>
		</clipPath>
		<g clip-path="url(#SVGID_2_)">
			<g>
				<defs>
					<circle id="SVGID_3_" cx="297.6" cy="420.9" r="297.6"/>
				</defs>
				<clipPath id="SVGID_4_">
					<use xlink:href="#SVGID_3_"  overflow="visible"/>
				</clipPath>
				<circle clip-path="url(#SVGID_4_)" fill="#4E535D" cx="297.6" cy="420.9" r="297.6"/>
			</g>
		</g>
		<g clip-path="url(#SVGID_2_)">
			<g>
				<defs>
					<circle id="SVGID_5_" cx="297.6" cy="420.9" r="297.6"/>
				</defs>
				<clipPath id="SVGID_6_">
					<use xlink:href="#SVGID_5_"  overflow="visible"/>
				</clipPath>
				
					<circle clip-path="url(#SVGID_6_)" fill="none" stroke="#4E535D" stroke-width="4" stroke-miterlimit="10" cx="297.6" cy="420.9" r="297.6"/>
			</g>
		</g>
		<g clip-path="url(#SVGID_2_)">
			<g>
				<defs>
					<path id="SVGID_7_" d="M282.8,331.7c0-8.9,6-14.9,14.9-14.9s14.9,6,14.9,14.9v178.6c0,8.9-6,14.9-14.9,14.9s-14.9-6-14.9-14.9
						V331.7z"/>
				</defs>
				<clipPath id="SVGID_8_">
					<use xlink:href="#SVGID_7_"  overflow="visible"/>
				</clipPath>
				<rect x="208.3" y="242.4" clip-path="url(#SVGID_8_)" fill="#FFFFFF" width="178.6" height="357.2"/>
			</g>
		</g>
		<g clip-path="url(#SVGID_2_)">
			<g>
				<defs>
					<path id="SVGID_9_" d="M208.3,435.8c-8.9,0-14.9-6-14.9-14.9c0-8.9,6-14.9,14.9-14.9h178.6c8.9,0,14.9,6,14.9,14.9
						c0,8.9-6,14.9-14.9,14.9H208.3z"/>
				</defs>
				<clipPath id="SVGID_10_">
					<use xlink:href="#SVGID_9_"  overflow="visible"/>
				</clipPath>
				<rect x="119.1" y="331.7" clip-path="url(#SVGID_10_)" fill="#FFFFFF" width="357.2" height="178.6"/>
			</g>
		</g>
	</g>
</g>
</svg>
